<svg width="448" height="376" viewBox="0 0 448 376" fill="none" xmlns="http://www.w3.org/2000/svg">
<path d="M32.5946 114.098C4.09605 97.984 -4.52151 38.5807 2.12531 9.01836C3.40058 3.34651 8.78206 0 14.5955 0H433C441.284 0 448 6.71573 448 15V359.927C448 367.379 442.533 373.723 435.114 374.422C401.719 377.568 344.64 377.628 308.761 358.993C257.413 332.323 257.132 314.836 243.304 284.55C228.057 251.156 204.696 229.82 156.818 229.82C124.648 229.82 104.629 198.682 95.7381 173.931C74.2456 114.098 72.3773 136.593 32.5946 114.098Z" fill="#263057"/>
</svg>
