<svg width="62" height="61" viewBox="0 0 62 61" fill="none" xmlns="http://www.w3.org/2000/svg">
<g filter="url(#filter0_b_30_1517)">
<rect y="4.96777" width="57" height="56" rx="10" transform="rotate(-5 0 4.96777)" fill="white" fill-opacity="0.75"/>
</g>
<g clip-path="url(#clip0_30_1517)">
<path d="M29.3085 13.8262C27.7218 13.965 26.2592 14.6936 25.197 15.8487C24.7207 16.368 25.4996 17.0826 25.976 16.5633C26.861 15.6008 28.0777 14.9941 29.4005 14.8784C30.7453 14.7607 32.0744 15.1649 33.1211 15.9858C33.6761 16.4204 34.328 15.5879 33.773 15.1533C32.5167 14.168 30.9214 13.6851 29.3085 13.8262ZM29.4467 15.4065C28.2115 15.5146 27.0795 16.0971 26.2778 17.0183C25.8059 17.5501 26.613 18.2525 27.0746 17.7116C27.6979 16.9953 28.5775 16.5437 29.5389 16.4596C30.5021 16.3754 31.4497 16.6688 32.1887 17.2683C32.7351 17.7302 33.4184 16.8951 32.8574 16.4509C31.9072 15.68 30.6843 15.2982 29.4467 15.4065ZM29.5847 16.9836C28.718 17.0595 27.9217 17.489 27.3808 18.1704C26.9119 18.7256 27.7754 19.4095 28.2084 18.8259C28.5693 18.3713 29.0986 18.0864 29.6768 18.0358C30.2552 17.9852 30.8308 18.1731 31.2652 18.5584C31.7929 19.058 32.5245 18.2346 31.9664 17.7693C31.3153 17.1916 30.4518 16.9078 29.5847 16.9836ZM29.6904 18.5471C29.1156 18.5974 28.6801 19.1164 28.7304 19.6913C28.7806 20.2661 29.3819 20.7121 29.8746 20.6524C30.3675 20.5933 30.9287 20.1084 30.868 19.5219C30.8074 18.9353 30.2499 18.5157 29.6904 18.5471ZM14.5618 20.9464C13.988 20.9966 13.5506 21.5179 13.6008 22.0917L14.9815 37.8738L47.5987 35.0201L46.218 19.2381C46.1678 18.6643 45.6465 18.2268 45.0727 18.277L31.8871 19.4306C31.9777 20.5679 31.1049 21.605 29.9667 21.7046C28.8285 21.8042 27.7899 20.9343 27.6816 19.7986L14.5618 20.9464ZM32.038 24.5755L32.769 25.3336L24.9522 32.9077L24.2172 32.1509L32.038 24.5755ZM35.2834 25.3517L36.0185 26.1095L28.2018 33.6846L27.4656 32.927L35.2834 25.3517ZM15.0736 38.9258L15.1656 39.978C15.2158 40.5518 15.737 40.9882 16.3108 40.938L39.1568 38.9392L46.8217 38.2686C47.3955 38.2184 47.833 37.6981 47.7828 37.1244L47.6908 36.0722L15.0736 38.9258ZM23.6864 41.3498L22.669 45.1526L19.3533 45.4427C18.6686 45.5186 18.758 46.5396 19.4454 46.4948L44.6956 44.2857C45.3803 44.2097 45.291 43.1887 44.6036 43.2336L41.2889 43.5236L39.6287 39.955L38.5087 40.053L40.1721 43.6213L23.789 45.0546L24.8043 41.252L23.6864 41.3498Z" fill="#6984F0"/>
</g>
<defs>
<filter id="filter0_b_30_1517" x="-7.16699" y="-7.16724" width="75.9978" height="75.089" filterUnits="userSpaceOnUse" color-interpolation-filters="sRGB">
<feFlood flood-opacity="0" result="BackgroundImageFix"/>
<feGaussianBlur in="BackgroundImage" stdDeviation="4"/>
<feComposite in2="SourceAlpha" operator="in" result="effect1_backgroundBlur_30_1517"/>
<feBlend mode="normal" in="SourceGraphic" in2="effect1_backgroundBlur_30_1517" result="shape"/>
</filter>
<clipPath id="clip0_30_1517">
<rect width="33.7969" height="33.7969" fill="white" transform="translate(12.4404 14.396) rotate(-5)"/>
</clipPath>
</defs>
</svg>
