<svg width="66" height="66" viewBox="0 0 66 66" fill="none" xmlns="http://www.w3.org/2000/svg">
<g filter="url(#filter0_b_30_1505)">
<rect x="9.72412" width="57" height="56" rx="10" transform="rotate(10 9.72412 0)" fill="white" fill-opacity="0.75"/>
</g>
<g clip-path="url(#clip0_30_1505)">
<path d="M45.8475 31.3884C40.1332 23.2276 28.9729 21.2598 20.8121 26.974C20.1024 27.4709 19.1975 27.3114 18.7006 26.6017C18.2038 25.8921 18.3633 24.9872 19.0729 24.4903C28.653 17.7823 41.774 20.0959 48.3312 29.6493C48.8281 30.359 48.6685 31.2639 47.9589 31.7607C47.2493 32.2576 46.3444 32.0981 45.8475 31.3884Z" fill="#6984F0"/>
<path d="M40.7292 34.8401C36.9759 29.6687 29.7367 28.3922 24.5919 31.9947C23.8822 32.4916 22.9773 32.332 22.4805 31.6224C21.9836 30.9128 22.1431 30.0079 22.8528 29.511C29.4435 24.7639 38.6432 26.3861 43.2129 33.101C43.7098 33.8106 43.5502 34.7155 42.8406 35.2124C42.1309 35.7093 41.2261 35.5498 40.7292 34.8401Z" fill="#6984F0"/>
<path d="M35.7085 38.6199C33.9694 36.1362 30.6515 35.5512 28.3186 37.3169C27.6089 37.8138 26.704 37.6542 26.2071 36.9446C25.7102 36.2349 25.8964 35.1792 26.606 34.6823C30.3848 31.772 35.6633 32.7028 38.2188 36.73C38.7157 37.4396 38.5296 38.4953 37.8199 38.9922C37.1103 39.4891 36.2054 39.3296 35.7085 38.6199Z" fill="#6984F0"/>
<path d="M30.7414 44.7419C32.324 45.0209 33.8332 43.9642 34.1122 42.3816C34.3913 40.7991 33.3345 39.2899 31.752 39.0109C30.1694 38.7318 28.6603 39.7885 28.3812 41.3711C28.1022 42.9537 29.1589 44.4628 30.7414 44.7419Z" fill="#6984F0"/>
</g>
<defs>
<filter id="filter0_b_30_1505" x="-6.41724" y="-6.41711" width="78.6926" height="77.8813" filterUnits="userSpaceOnUse" color-interpolation-filters="sRGB">
<feFlood flood-opacity="0" result="BackgroundImageFix"/>
<feGaussianBlur in="BackgroundImage" stdDeviation="4"/>
<feComposite in2="SourceAlpha" operator="in" result="effect1_backgroundBlur_30_1505"/>
<feBlend mode="normal" in="SourceGraphic" in2="effect1_backgroundBlur_30_1505" result="shape"/>
</filter>
<clipPath id="clip0_30_1505">
<rect width="30.6285" height="30.6285" fill="white" transform="translate(20.2693 15.0599) rotate(10)"/>
</clipPath>
</defs>
</svg>
