<svg width="54" height="54" viewBox="0 0 54 54" fill="none" xmlns="http://www.w3.org/2000/svg">
<path d="M38.25 4.5H15.75C9.5368 4.5 4.5 9.5368 4.5 15.75V38.25C4.5 44.4632 9.5368 49.5 15.75 49.5H38.25C44.4632 49.5 49.5 44.4632 49.5 38.25V15.75C49.5 9.5368 44.4632 4.5 38.25 4.5Z" stroke="#E58211" stroke-width="3" stroke-linecap="round" stroke-linejoin="round"/>
<path d="M36.0001 25.5827C36.2777 27.4552 35.9579 29.3677 35.086 31.048C34.2142 32.7283 32.8347 34.0909 31.1437 34.942C29.4528 35.793 27.5366 36.0893 25.6676 35.7885C23.7986 35.4878 22.072 34.6054 20.7335 33.2668C19.3949 31.9282 18.5125 30.2017 18.2117 28.3327C17.911 26.4637 18.2072 24.5475 19.0583 22.8565C19.9094 21.1656 21.272 19.7861 22.9523 18.9142C24.6326 18.0424 26.545 17.7225 28.4176 18.0002C30.3277 18.2834 32.096 19.1735 33.4614 20.5389C34.8268 21.9043 35.7168 23.6726 36.0001 25.5827Z" stroke="#E58211" stroke-width="3" stroke-linecap="round" stroke-linejoin="round"/>
<path d="M39.375 14.625H39.3975" stroke="#E58211" stroke-width="3" stroke-linecap="round" stroke-linejoin="round"/>
</svg>
