<svg width="54" height="54" viewBox="0 0 54 54" fill="none" xmlns="http://www.w3.org/2000/svg">
<path d="M49.5 38.0702V44.8202C49.5025 45.4468 49.3742 46.0671 49.1231 46.6413C48.8721 47.2154 48.5039 47.7308 48.0421 48.1544C47.5804 48.578 47.0353 48.9006 46.4417 49.1013C45.8481 49.3021 45.2191 49.3766 44.595 49.3202C37.6713 48.5679 31.0207 46.202 25.1775 42.4127C19.7411 38.9582 15.132 34.3491 11.6775 28.9127C7.87492 23.0429 5.50852 16.36 4.76997 9.40522C4.71375 8.78302 4.78769 8.15593 4.9871 7.56387C5.1865 6.97182 5.50701 6.42777 5.9282 5.96637C6.34938 5.50496 6.86203 5.13631 7.4335 4.88389C8.00497 4.63147 8.62274 4.50081 9.24747 4.50022H15.9975C17.0894 4.48947 18.148 4.87614 18.9759 5.58817C19.8039 6.30019 20.3446 7.28897 20.4975 8.37022C20.7824 10.5304 21.3107 12.6514 22.0725 14.6927C22.3752 15.498 22.4407 16.3733 22.2613 17.2147C22.0818 18.0561 21.6649 18.8285 21.06 19.4402L18.2025 22.2977C21.4055 27.9307 26.0695 32.5947 31.7025 35.7977L34.56 32.9402C35.1717 32.3353 35.9441 31.9184 36.7855 31.7389C37.6269 31.5595 38.5021 31.625 39.3075 31.9277C41.3488 32.6895 43.4698 33.2178 45.63 33.5027C46.7229 33.6569 47.7211 34.2074 48.4347 35.0496C49.1482 35.8917 49.5274 36.9668 49.5 38.0702Z" stroke="#E58211" stroke-width="3" stroke-linecap="round" stroke-linejoin="round"/>
</svg>
